<svg width="146" height="35" viewBox="0 0 146 35" fill="none" xmlns="http://www.w3.org/2000/svg">
<g filter="url(#filter0_d_3_3)">
<g filter="url(#filter1_d_3_3)">
<path d="M46.1204 4.90909V18H43.3526V4.90909H46.1204ZM48.3975 18V4.90909H53.639C54.6021 4.90909 55.4054 5.05185 56.0488 5.33736C56.6923 5.62287 57.176 6.01918 57.4998 6.52628C57.8237 7.02912 57.9856 7.60866 57.9856 8.26491C57.9856 8.77628 57.8833 9.22585 57.6788 9.61364C57.4743 9.99716 57.193 10.3125 56.8351 10.5597C56.4814 10.8026 56.0765 10.9751 55.6206 11.0774V11.2053C56.1191 11.2266 56.5858 11.3672 57.0204 11.6271C57.4593 11.8871 57.8152 12.2514 58.0879 12.7202C58.3606 13.1847 58.497 13.7386 58.497 14.3821C58.497 15.0767 58.3244 15.6967 57.9792 16.2422C57.6383 16.7834 57.1333 17.2116 56.4643 17.527C55.7953 17.8423 54.9707 18 53.9906 18H48.3975ZM51.1653 15.7372H53.4217C54.193 15.7372 54.7555 15.5902 55.1092 15.2962C55.4629 14.9979 55.6397 14.6016 55.6397 14.1072C55.6397 13.745 55.5524 13.4254 55.3777 13.1484C55.2029 12.8714 54.9537 12.6541 54.6298 12.4964C54.3102 12.3388 53.9288 12.2599 53.4856 12.2599H51.1653V15.7372ZM51.1653 10.3871H53.2172C53.5964 10.3871 53.9331 10.321 54.2271 10.1889C54.5254 10.0526 54.7598 9.8608 54.9302 9.61364C55.1049 9.36648 55.1923 9.07031 55.1923 8.72514C55.1923 8.25213 55.024 7.87074 54.6873 7.58097C54.3549 7.29119 53.8819 7.14631 53.2683 7.14631H51.1653V10.3871ZM68.3839 4.90909H71.1516V13.4105C71.1516 14.3651 70.9237 15.2003 70.4677 15.9162C70.016 16.6321 69.3832 17.1903 68.5692 17.5909C67.7553 17.9872 66.8072 18.1854 65.7248 18.1854C64.6381 18.1854 63.6879 17.9872 62.8739 17.5909C62.06 17.1903 61.4272 16.6321 60.9755 15.9162C60.5238 15.2003 60.2979 14.3651 60.2979 13.4105V4.90909H63.0657V13.174C63.0657 13.6726 63.1744 14.1158 63.3917 14.5036C63.6133 14.8913 63.9244 15.196 64.3249 15.4176C64.7255 15.6392 65.1921 15.75 65.7248 15.75C66.2617 15.75 66.7283 15.6392 67.1246 15.4176C67.5252 15.196 67.8342 14.8913 68.0515 14.5036C68.2731 14.1158 68.3839 13.6726 68.3839 13.174V4.90909ZM72.6618 4.90909H75.7619L78.747 10.5469H78.8748L81.8599 4.90909H84.9601L80.1852 13.3722V18H77.4366V13.3722L72.6618 4.90909ZM86.4718 4.90909H89.8851L93.4902 13.7045H93.6436L97.2488 4.90909H100.662V18H97.9775V9.4794H97.8688L94.481 17.9361H92.6529L89.2651 9.44744H89.1564V18H86.4718V4.90909ZM114.972 11.4545C114.972 12.8821 114.702 14.0966 114.161 15.098C113.624 16.0994 112.891 16.8643 111.962 17.3928C111.037 17.9169 109.997 18.179 108.842 18.179C107.679 18.179 106.635 17.9148 105.71 17.3864C104.786 16.858 104.055 16.093 103.518 15.0916C102.981 14.0902 102.712 12.8778 102.712 11.4545C102.712 10.027 102.981 8.8125 103.518 7.81108C104.055 6.80966 104.786 6.04687 105.71 5.52273C106.635 4.99432 107.679 4.73011 108.842 4.73011C109.997 4.73011 111.037 4.99432 111.962 5.52273C112.891 6.04687 113.624 6.80966 114.161 7.81108C114.702 8.8125 114.972 10.027 114.972 11.4545ZM112.166 11.4545C112.166 10.5298 112.028 9.75 111.751 9.11506C111.478 8.48011 111.092 7.99858 110.594 7.67045C110.095 7.34233 109.511 7.17827 108.842 7.17827C108.173 7.17827 107.589 7.34233 107.091 7.67045C106.592 7.99858 106.205 8.48011 105.928 9.11506C105.655 9.75 105.518 10.5298 105.518 11.4545C105.518 12.3793 105.655 13.1591 105.928 13.794C106.205 14.429 106.592 14.9105 107.091 15.2386C107.589 15.5668 108.173 15.7308 108.842 15.7308C109.511 15.7308 110.095 15.5668 110.594 15.2386C111.092 14.9105 111.478 14.429 111.751 13.794C112.028 13.1591 112.166 12.3793 112.166 11.4545ZM118.649 4.90909L121.813 14.8551H121.935L125.105 4.90909H128.173L123.661 18H120.094L115.575 4.90909H118.649ZM132.517 4.90909V18H129.749V4.90909H132.517ZM134.794 18V4.90909H143.615V7.19105H137.562V10.3104H143.161V12.5923H137.562V15.718H143.641V18H134.794Z" fill="white"/>
</g>
<path d="M55.6307 25.8867H53.7642C53.7301 25.6452 53.6605 25.4308 53.5554 25.2433C53.4503 25.0529 53.3153 24.891 53.1506 24.7575C52.9858 24.6239 52.7955 24.5217 52.5795 24.4506C52.3665 24.3796 52.1349 24.3441 51.8849 24.3441C51.4332 24.3441 51.0398 24.4563 50.7045 24.6808C50.3693 24.9023 50.1094 25.2262 49.9247 25.6523C49.7401 26.0756 49.6477 26.5898 49.6477 27.195C49.6477 27.8171 49.7401 28.3398 49.9247 28.7631C50.1122 29.1864 50.3736 29.506 50.7088 29.7219C51.044 29.9379 51.4318 30.0458 51.8722 30.0458C52.1193 30.0458 52.348 30.0131 52.5582 29.9478C52.7713 29.8825 52.9602 29.7873 53.125 29.6623C53.2898 29.5344 53.4261 29.3796 53.5341 29.1978C53.6449 29.016 53.7216 28.8086 53.7642 28.5756L55.6307 28.5842C55.5824 28.9847 55.4616 29.3711 55.2685 29.7433C55.0781 30.1126 54.821 30.4435 54.4972 30.7362C54.1761 31.0259 53.7926 31.256 53.3466 31.4265C52.9034 31.5941 52.402 31.6779 51.8423 31.6779C51.0639 31.6779 50.3679 31.5018 49.7543 31.1495C49.1435 30.7972 48.6605 30.2873 48.3054 29.6197C47.9531 28.9521 47.777 28.1438 47.777 27.195C47.777 26.2433 47.956 25.4336 48.3139 24.766C48.6719 24.0984 49.1577 23.5898 49.7713 23.2404C50.3849 22.8881 51.0753 22.712 51.8423 22.712C52.348 22.712 52.8168 22.783 53.2486 22.9251C53.6832 23.0671 54.0682 23.2745 54.4034 23.5472C54.7386 23.8171 55.0114 24.1481 55.2216 24.5401C55.4347 24.9322 55.571 25.381 55.6307 25.8867ZM56.9538 31.5586V22.8313H60.397C61.0561 22.8313 61.6186 22.9492 62.0845 23.185C62.5533 23.418 62.9098 23.7489 63.1541 24.1779C63.4013 24.604 63.5249 25.1055 63.5249 25.6822C63.5249 26.2617 63.3999 26.7603 63.1499 27.1779C62.8999 27.5927 62.5376 27.9109 62.0632 28.1325C61.5916 28.354 61.0206 28.4648 60.3501 28.4648H58.0447V26.9819H60.0518C60.4041 26.9819 60.6967 26.9336 60.9297 26.837C61.1626 26.7404 61.3359 26.5955 61.4496 26.4023C61.5661 26.2092 61.6243 25.9691 61.6243 25.6822C61.6243 25.3924 61.5661 25.1481 61.4496 24.9492C61.3359 24.7504 61.1612 24.5998 60.9254 24.4975C60.6925 24.3924 60.3984 24.3398 60.0433 24.3398H58.799V31.5586H56.9538ZM61.6669 27.587L63.8359 31.5586H61.799L59.6768 27.587H61.6669ZM64.8288 31.5586V22.8313H70.7095V24.3526H66.674V26.4322H70.407V27.9535H66.674V30.0373H70.7266V31.5586H64.8288ZM73.6808 31.5586H71.7035L74.7163 22.8313H77.0941L80.1026 31.5586H78.1254L75.9393 24.8256H75.8711L73.6808 31.5586ZM73.5572 28.1282H78.2276V29.5685H73.5572V28.1282ZM79.7543 24.3526V22.8313H86.9219V24.3526H84.25V31.5586H82.4261V24.3526H79.7543ZM88.1023 31.5586V22.8313H93.983V24.3526H89.9474V26.4322H93.6804V27.9535H89.9474V30.0373H94V31.5586H88.1023ZM100.869 31.6864C100.267 31.6864 99.7472 31.5785 99.3097 31.3626C98.8722 31.1467 98.5355 30.854 98.2997 30.4847C98.0668 30.1126 97.9503 29.6978 97.9503 29.2404C97.9503 28.8995 98.0185 28.5969 98.1548 28.3327C98.2912 28.0685 98.4815 27.8256 98.7259 27.604C98.9702 27.3796 99.2543 27.1566 99.5781 26.935L101.27 25.8228C101.489 25.6836 101.649 25.5373 101.751 25.3839C101.854 25.2276 101.905 25.0586 101.905 24.8768C101.905 24.7035 101.835 24.543 101.696 24.3952C101.557 24.2475 101.359 24.1751 101.104 24.1779C100.933 24.1779 100.786 24.2163 100.661 24.293C100.536 24.3668 100.438 24.4648 100.366 24.587C100.298 24.7063 100.264 24.8398 100.264 24.9876C100.264 25.1694 100.315 25.354 100.418 25.5415C100.52 25.729 100.656 25.9279 100.827 26.1381C100.997 26.3455 101.183 26.57 101.385 26.8114L105.523 31.5586H103.631L100.179 27.7148C99.9517 27.4563 99.7244 27.1864 99.4972 26.9052C99.2727 26.6211 99.0852 26.32 98.9347 26.0018C98.7841 25.6808 98.7088 25.3327 98.7088 24.9577C98.7088 24.5344 98.8068 24.1538 99.0028 23.8157C99.2017 23.4776 99.4801 23.2106 99.8381 23.0146C100.196 22.8157 100.614 22.7163 101.091 22.7163C101.557 22.7163 101.959 22.8114 102.297 23.0018C102.638 23.1893 102.899 23.4393 103.081 23.7518C103.266 24.0614 103.358 24.4023 103.358 24.7745C103.358 25.1864 103.256 25.56 103.051 25.8952C102.849 26.2276 102.565 26.5259 102.199 26.7901L100.418 28.0728C100.176 28.2489 99.9972 28.4293 99.8807 28.614C99.767 28.7958 99.7102 28.9705 99.7102 29.1381C99.7102 29.3455 99.7614 29.5316 99.8636 29.6964C99.9659 29.8612 100.111 29.9918 100.298 30.0884C100.486 30.1822 100.706 30.229 100.959 30.229C101.266 30.229 101.568 30.1594 101.866 30.0202C102.168 29.8782 102.44 29.6779 102.685 29.4194C102.932 29.158 103.129 28.8484 103.277 28.4904C103.425 28.1325 103.499 27.7362 103.499 27.3015H105.003C105.003 27.8356 104.945 28.3171 104.828 28.7461C104.712 29.1722 104.55 29.5444 104.342 29.8626C104.135 30.1779 103.898 30.4364 103.631 30.6381C103.545 30.6921 103.463 30.7433 103.384 30.7915C103.304 30.8398 103.222 30.891 103.136 30.945C102.813 31.2063 102.45 31.3952 102.05 31.5117C101.652 31.6282 101.259 31.6864 100.869 31.6864ZM109.091 31.5586V22.8313H112.585C113.227 22.8313 113.762 22.9265 114.191 23.1168C114.62 23.3072 114.943 23.5714 115.159 23.9094C115.375 24.2447 115.483 24.631 115.483 25.0685C115.483 25.4094 115.414 25.7092 115.278 25.9677C115.142 26.2234 114.954 26.4336 114.716 26.5984C114.48 26.7603 114.21 26.8754 113.906 26.9435V27.0288C114.238 27.043 114.549 27.1367 114.839 27.31C115.132 27.4833 115.369 27.7262 115.551 28.0387C115.733 28.3484 115.824 28.7177 115.824 29.1467C115.824 29.6097 115.708 30.0231 115.478 30.3867C115.251 30.7475 114.914 31.033 114.468 31.2433C114.022 31.4535 113.473 31.5586 112.819 31.5586H109.091ZM110.936 30.0501H112.44C112.954 30.0501 113.329 29.9521 113.565 29.756C113.801 29.5572 113.919 29.293 113.919 28.9634C113.919 28.7219 113.86 28.5089 113.744 28.3242C113.627 28.1396 113.461 27.9947 113.245 27.8896C113.032 27.7844 112.778 27.7319 112.483 27.7319H110.936V30.0501ZM110.936 26.4833H112.304C112.556 26.4833 112.781 26.4393 112.977 26.3512C113.176 26.2603 113.332 26.1325 113.446 25.9677C113.562 25.8029 113.62 25.6055 113.62 25.3754C113.62 25.06 113.508 24.8058 113.284 24.6126C113.062 24.4194 112.747 24.3228 112.338 24.3228H110.936V26.4833ZM122.415 22.8313H124.26V28.4989C124.26 29.1353 124.108 29.6921 123.804 30.1694C123.503 30.6467 123.081 31.0188 122.538 31.2859C121.996 31.5501 121.364 31.6822 120.642 31.6822C119.918 31.6822 119.284 31.5501 118.741 31.2859C118.199 31.0188 117.777 30.6467 117.476 30.1694C117.175 29.6921 117.024 29.1353 117.024 28.4989V22.8313H118.869V28.3413C118.869 28.6737 118.942 28.9691 119.087 29.2276C119.234 29.4862 119.442 29.6893 119.709 29.837C119.976 29.9847 120.287 30.0586 120.642 30.0586C121 30.0586 121.311 29.9847 121.575 29.837C121.842 29.6893 122.048 29.4862 122.193 29.2276C122.341 28.9691 122.415 28.6737 122.415 28.3413V22.8313ZM125.267 22.8313H127.333L129.324 26.5898H129.409L131.399 22.8313H133.466L130.282 28.4734V31.5586H128.45V28.4734L125.267 22.8313Z" fill="white"/>
</g>
<path d="M1.25535 1.90026C0.421834 4.60265 -0.000926139 7.4209 0.00196788 10.2556C0.00196788 10.3735 0.00196788 10.4914 0.00196788 10.6093C4.42401 7.73479 8.3706 4.15325 11.6926 0C8.15742 0.238892 4.65826 0.873684 1.25734 1.89308L1.25535 1.90026Z" fill="white"/>
<path d="M22.2483 9.87744C22.6548 9.11829 23.0949 8.38204 23.5685 7.66867C21.5401 5.30964 19.7572 2.73948 18.2486 0V0C17.1449 1.87702 16.2641 3.88314 15.6251 5.97546C15.3683 6.81592 15.1505 7.67346 14.9715 8.54808C14.7932 7.67482 14.5753 6.81729 14.3179 5.97546C13.6789 3.88314 12.7981 1.87701 11.6943 0C10.1852 2.73988 8.40153 5.3104 6.37244 7.6697C6.84546 8.38238 7.28554 9.11864 7.69268 9.87847C6.24758 11.1729 4.99489 12.6778 3.97447 14.3452C2.93943 16.0357 2.15732 17.8761 1.6543 19.8051C4.0425 26.4298 8.8065 31.8659 14.9705 35C21.1345 31.8659 25.8985 26.4298 28.2867 19.8051C27.2792 15.9531 25.1769 12.4968 22.2483 9.87744V9.87744ZM6.85943 23.4713C6.54997 21.8974 6.39453 20.2957 6.39541 18.69C6.39541 18.4453 6.39905 18.2014 6.40637 17.9581C7.73131 21.0861 9.68938 23.8886 12.1504 26.1793C10.2816 25.5118 8.50359 24.6018 6.85943 23.4713ZM17.7896 26.1803C20.2506 23.8896 22.2087 21.0872 23.5336 17.9592C23.5416 18.2024 23.5453 18.4464 23.5446 18.691C23.5455 20.2967 23.39 21.8985 23.0806 23.4724C21.4365 24.6032 19.6584 25.5135 17.7896 26.1813V26.1803Z" fill="white"/>
<path d="M24.4252 6.44899C26.1654 7.96633 28.0068 9.35682 29.9358 10.6103C29.9358 10.4924 29.9358 10.3745 29.9358 10.2567C29.9385 7.42153 29.5153 4.60292 28.6813 1.90026C28.6816 1.89788 28.6816 1.89547 28.6813 1.89308C25.2804 0.873684 21.7812 0.238892 18.2461 0C20.1135 2.33549 22.1815 4.49385 24.4252 6.44899V6.44899Z" fill="white"/>
<defs>
<filter id="filter0_d_3_3" x="42.8535" y="4.23047" width="102.287" height="28.9561" filterUnits="userSpaceOnUse" color-interpolation-filters="sRGB">
<feFlood flood-opacity="0" result="BackgroundImageFix"/>
<feColorMatrix in="SourceAlpha" type="matrix" values="0 0 0 0 0 0 0 0 0 0 0 0 0 0 0 0 0 0 127 0" result="hardAlpha"/>
<feOffset dx="0.5" dy="0.5"/>
<feGaussianBlur stdDeviation="0.5"/>
<feColorMatrix type="matrix" values="0 0 0 0 0 0 0 0 0 0 0 0 0 0 0 0 0 0 0.161 0"/>
<feBlend mode="normal" in2="BackgroundImageFix" result="effect1_dropShadow_3_3"/>
<feBlend mode="normal" in="SourceGraphic" in2="effect1_dropShadow_3_3" result="shape"/>
</filter>
<filter id="filter1_d_3_3" x="42.8535" y="4.23047" width="102.287" height="15.4551" filterUnits="userSpaceOnUse" color-interpolation-filters="sRGB">
<feFlood flood-opacity="0" result="BackgroundImageFix"/>
<feColorMatrix in="SourceAlpha" type="matrix" values="0 0 0 0 0 0 0 0 0 0 0 0 0 0 0 0 0 0 127 0" result="hardAlpha"/>
<feOffset dx="0.5" dy="0.5"/>
<feGaussianBlur stdDeviation="0.5"/>
<feColorMatrix type="matrix" values="0 0 0 0 0 0 0 0 0 0 0 0 0 0 0 0 0 0 0.161 0"/>
<feBlend mode="normal" in2="BackgroundImageFix" result="effect1_dropShadow_3_3"/>
<feBlend mode="normal" in="SourceGraphic" in2="effect1_dropShadow_3_3" result="shape"/>
</filter>
</defs>
</svg>
