<svg width="30" height="35" viewBox="0 0 30 35" fill="none" xmlns="http://www.w3.org/2000/svg">
<path d="M1.25535 1.90026C0.421834 4.60265 -0.000926139 7.4209 0.00196788 10.2556C0.00196788 10.3735 0.00196788 10.4914 0.00196788 10.6093C4.42401 7.73479 8.3706 4.15325 11.6926 0C8.15742 0.238892 4.65826 0.873684 1.25734 1.89308L1.25535 1.90026Z" fill="white"/>
<path d="M22.2483 9.87744C22.6548 9.11829 23.0949 8.38204 23.5685 7.66867C21.5401 5.30964 19.7572 2.73948 18.2486 0V0C17.1449 1.87702 16.2641 3.88314 15.6251 5.97546C15.3683 6.81592 15.1505 7.67346 14.9715 8.54808C14.7932 7.67482 14.5753 6.81729 14.3179 5.97546C13.6789 3.88314 12.7981 1.87701 11.6943 0C10.1852 2.73988 8.40153 5.3104 6.37244 7.6697C6.84546 8.38238 7.28554 9.11864 7.69268 9.87847C6.24758 11.1729 4.99489 12.6778 3.97447 14.3452C2.93943 16.0357 2.15732 17.8761 1.6543 19.8051C4.0425 26.4298 8.8065 31.8659 14.9705 35C21.1345 31.8659 25.8985 26.4298 28.2867 19.8051C27.2792 15.9531 25.1769 12.4968 22.2483 9.87744V9.87744ZM6.85943 23.4713C6.54997 21.8974 6.39453 20.2957 6.39541 18.69C6.39541 18.4453 6.39905 18.2014 6.40637 17.9581C7.73131 21.0861 9.68938 23.8886 12.1504 26.1793C10.2816 25.5118 8.50359 24.6018 6.85943 23.4713ZM17.7896 26.1803C20.2506 23.8896 22.2087 21.0872 23.5336 17.9592C23.5416 18.2024 23.5453 18.4464 23.5446 18.691C23.5455 20.2967 23.39 21.8985 23.0806 23.4724C21.4365 24.6032 19.6584 25.5135 17.7896 26.1813V26.1803Z" fill="white"/>
<path d="M24.4252 6.44899C26.1654 7.96633 28.0068 9.35682 29.9358 10.6103C29.9358 10.4924 29.9358 10.3745 29.9358 10.2567C29.9385 7.42153 29.5153 4.60292 28.6813 1.90026C28.6816 1.89788 28.6816 1.89547 28.6813 1.89308C25.2804 0.873684 21.7812 0.238892 18.2461 0C20.1135 2.33549 22.1815 4.49385 24.4252 6.44899V6.44899Z" fill="white"/>
</svg>
