<svg width="30" height="35" viewBox="0 0 30 35" fill="none" xmlns="http://www.w3.org/2000/svg">
<path d="M1.25339 1.90026C0.41988 4.60265 -0.00287926 7.4209 1.47579e-05 10.2556C1.47579e-05 10.3735 1.47579e-05 10.4914 1.47579e-05 10.6093C4.42206 7.73479 8.36865 4.15325 11.6906 0C8.15546 0.238892 4.65631 0.873684 1.25539 1.89308L1.25339 1.90026Z" fill="black"/>
<path d="M22.2463 9.87744C22.6528 9.11829 23.0929 8.38204 23.5666 7.66867C21.5382 5.30964 19.7552 2.73948 18.2467 0V0C17.1429 1.87702 16.2621 3.88314 15.6232 5.97546C15.3664 6.81592 15.1485 7.67346 14.9695 8.54808C14.7912 7.67482 14.5734 6.81729 14.3159 5.97546C13.677 3.88314 12.7962 1.87701 11.6924 0C10.1832 2.73988 8.39958 5.3104 6.37049 7.6697C6.8435 8.38238 7.28358 9.11864 7.69073 9.87847C6.24563 11.1729 4.99294 12.6778 3.97251 14.3452C2.93748 16.0357 2.15537 17.8761 1.65234 19.8051C4.04055 26.4298 8.80455 31.8659 14.9685 35C21.1325 31.8659 25.8966 26.4298 28.2848 19.8051C27.2772 15.9531 25.175 12.4968 22.2463 9.87744V9.87744ZM6.85748 23.4713C6.54802 21.8974 6.39257 20.2957 6.39345 18.69C6.39345 18.4453 6.3971 18.2014 6.40442 17.9581C7.72936 21.0861 9.68743 23.8886 12.1484 26.1793C10.2797 25.5118 8.50163 24.6018 6.85748 23.4713ZM17.7877 26.1803C20.2487 23.8896 22.2067 21.0872 23.5317 17.9592C23.5397 18.2024 23.5433 18.4464 23.5426 18.691C23.5435 20.2967 23.3881 21.8985 23.0786 23.4724C21.4345 24.6032 19.6565 25.5135 17.7877 26.1813V26.1803Z" fill="black"/>
<path d="M24.4233 6.44899C26.1634 7.96633 28.0048 9.35682 29.9338 10.6103C29.9338 10.4924 29.9338 10.3745 29.9338 10.2567C29.9365 7.42153 29.5133 4.60292 28.6794 1.90026C28.6796 1.89788 28.6796 1.89547 28.6794 1.89308C25.2785 0.873684 21.7793 0.238892 18.2441 0C20.1115 2.33549 22.1796 4.49385 24.4233 6.44899V6.44899Z" fill="black"/>
</svg>
